<svg xmlns="http://www.w3.org/2000/svg" version="1.1" xmlns:xlink="http://www.w3.org/1999/xlink" xmlns:svgjs="http://svgjs.dev/svgjs" width="1500" height="1500" viewBox="0 0 1500 1500"><rect width="1500" height="1500" fill="#000000"></rect><g transform="matrix(0.6666666666666666,0,0,0.6666666666666666,249.50000000000006,249.5007150489427)"><svg viewBox="0 0 280 280" data-background-color="#ede1d1" preserveAspectRatio="xMidYMid meet" height="1500" width="1500" xmlns="http://www.w3.org/2000/svg" xmlns:xlink="http://www.w3.org/1999/xlink"><g id="tight-bounds" transform="matrix(1,0,0,1,0.13999999999998636,0.14006826907791492)"><svg viewBox="0 0 279.72 279.72" height="279.72" width="279.72"><g><svg viewBox="0 0 279.72 279.72" height="279.72" width="279.72"><g><svg viewBox="0 0 279.72 279.72" height="279.72" width="279.72"><g id="textblocktransform"><svg viewBox="0 0 279.72 279.72" height="279.72" width="279.72" id="textblock"><g><svg viewBox="0 0 279.72 279.72" height="279.72" width="279.72"><g transform="matrix(1,0,0,1,80.92074703262949,73.92936372216631)"><svg viewBox="0 0 117.87850593474106 131.8612725556674" height="131.8612725556674" width="117.87850593474106"><g id="icon-0"><svg xmlns="http://www.w3.org/2000/svg" xmlns:xlink="http://www.w3.org/1999/xlink" version="1.1" x="0" y="0" viewBox="7.044365278336957 4 50.955634721663046 57" style="enable-background:new 0 0 64 64;" xml:space="preserve" height="131.8612725556674" width="117.87850593474106" class="icon-jxe-0" data-fill-palette-color="accent" id="jxe-0"><path d="M42.387 22.685A8 8 0 0 0 36.407 20H20.96A8 8 0 0 0 15.753 21.926L9.139 27.596A6 6 0 0 0 8.989 36.573L13.913 41.087 18.846 36.154 14 32 21 27V38L13.36 45.64A4 4 0 0 0 12.9 50.744L20 61H28L20 49 28 41 48 61 53.151 56.186 36 38 37 27 45 35H58V29H48zM30 33H28V31H30zM30 29H28V27H30zM30 25H28V23H30z" fill="#ffffff" data-fill-palette-color="accent"></path><path d="M31.053 19.697C34.471 18.787 37 15.674 37 11.974 37 7.737 33.687 4.269 29.518 4L28.123 6.092A3.44 3.44 0 0 0 29.447 11.079 5.44 5.44 0 0 1 31.541 18.965zM32 8.974H30V6.974H32z" fill="#ffffff" data-fill-palette-color="accent"></path><path d="M26.947 4.25C23.529 5.16 21 8.274 21 11.975 21 16.21 24.313 19.679 28.482 19.948L29.877 17.856A3.44 3.44 0 0 0 28.553 12.868 5.44 5.44 0 0 1 26.459 4.983zM27 13.975V15.974H25V13.974z" fill="#ffffff" data-fill-palette-color="accent"></path></svg></g></svg></g><g id="text-0"><path d="M18.566 111.052c-0.385-0.134-0.673-0.412-0.863-0.836-0.19-0.424-0.313-0.745-0.368-0.962-0.05-0.215-0.096-0.366-0.139-0.455v0c1.93 0.552 3.32-0.397 4.169-2.846v0c0.67-1.933 0.847-4.396 0.531-7.388v0c-0.196-2.116-0.623-3.637-1.284-4.561v0c-0.195-0.302-0.381-0.483-0.557-0.544-0.176-0.061-0.327-0.08-0.452-0.058v0l-7.383 11.927c-0.207 0.345-0.509 0.647-0.906 0.905v0c-0.681 0.488-1.208 0.668-1.581 0.538v0c-1.43-0.496-2.374-1.964-2.83-4.405v0c-0.491-2.68-0.407-6.013 0.25-9.999v0c0.151-0.899 0.289-1.561 0.414-1.986v0c0.082-0.111 0.184-0.287 0.305-0.53 0.117-0.252 0.255-0.504 0.416-0.756v0c0.366-0.59 0.729-0.764 1.091-0.522v0c0.705 0.245 0.796 1.787 0.273 4.627v0c-0.687 3.669-1.003 5.996-0.949 6.981 0.054 0.984 0.2 1.734 0.439 2.248 0.245 0.517 0.622 0.874 1.132 1.073v0c0.104 0.036 0.301-0.163 0.591-0.597 0.289-0.434 0.638-0.953 1.045-1.558 0.407-0.605 0.941-1.386 1.602-2.342v0c1.597-2.329 3.583-5.175 5.955-8.537v0c0.53-0.051 0.994-0.007 1.392 0.131v0c1.097 0.38 1.932 1.391 2.506 3.03v0c0.64 1.846 0.909 4.196 0.804 7.051v0c-0.1 2.358-0.37 4.17-0.809 5.437v0c-0.367 1.058-0.903 2.003-1.608 2.834-0.703 0.825-1.313 1.414-1.831 1.769-0.518 0.355-0.97 0.465-1.355 0.331z" fill="#ffffff" data-fill-palette-color="primary"></path><path d="M25.252 88.468v0c-0.309-0.169-0.75-0.379-1.323-0.628-0.579-0.253-1.205-0.541-1.88-0.863-0.678-0.316-1.357-0.659-2.037-1.03-0.673-0.368-1.258-0.762-1.752-1.183v0c-1.116-0.941-1.459-1.806-1.028-2.594v0c0.453-0.454 0.844-0.709 1.174-0.765 0.333-0.062 0.67 0 1.009 0.186 0.334 0.182 0.704 0.499 1.112 0.95v0c1.332 1.555 2.672 2.701 4.018 3.437v0c0.443 0.242 0.933 0.47 1.469 0.685v0c1.458 0.403 2.682-0.302 3.674-2.116v0c0.517-0.946 0.844-1.934 0.981-2.962v0c0.285-1.948 0.183-3.433-0.306-4.457v0c-0.793-0.654-1.523-1.163-2.19-1.528-0.667-0.365-1.275-0.665-1.823-0.902-0.548-0.237-1.153-0.492-1.814-0.767-0.661-0.275-1.373-0.609-2.135-1.002v0c0.021-0.312 0.097-0.589 0.23-0.831 0.133-0.243 0.395-0.426 0.785-0.551 0.391-0.125 0.985-0.088 1.783 0.111 0.791 0.196 1.673 0.521 2.646 0.974 0.964 0.456 1.95 0.951 2.958 1.486 1.004 0.541 1.976 1.068 2.916 1.583 0.934 0.511 1.759 0.91 2.476 1.2v0c0.086 0.347 0.071 0.626-0.044 0.838v0c-0.421 0.77-1.503 0.92-3.246 0.447v0c0.076 0.365 0.105 0.932 0.086 1.702v0c-0.005 1.652-0.366 3.408-1.084 5.269v0c-0.137 0.351-0.316 0.729-0.538 1.136-0.219 0.4-0.575 0.864-1.067 1.39-0.483 0.524-1.151 0.903-2.005 1.138-0.859 0.232-1.874 0.114-3.045-0.353z" fill="#ffffff" data-fill-palette-color="primary"></path><path d="M38.451 54.49v0c-1.081 0.33-2.062 1.071-2.946 2.224v0c-0.829 1.081-1.398 2.238-1.708 3.472v0c-0.602 2.308-0.578 4.226 0.072 5.752v0c0.316 0.678 0.771 1.244 1.363 1.699v0c0.104 0.08 0.398 0.305 0.881 0.675 0.477 0.366 1.187 0.775 2.13 1.227 0.947 0.447 1.837 0.99 2.67 1.63v0c-0.26 0.384-0.443 0.714-0.549 0.989-0.101 0.28-0.213 0.499-0.335 0.658-0.122 0.159-0.294 0.241-0.515 0.246-0.231 0.006-0.599-0.076-1.105-0.246v0c-0.121-0.058-0.445-0.249-0.971-0.574-0.53-0.319-1.173-0.708-1.929-1.166-0.761-0.462-1.594-0.96-2.497-1.496-0.9-0.542-1.784-1.076-2.653-1.602v0c-1.892-1.145-3.287-1.979-4.184-2.502v0c-0.422-0.324-0.4-0.79 0.067-1.399v0c0.282-0.368 0.656-0.538 1.123-0.511 0.467 0.027 0.944 0.127 1.43 0.299 0.488 0.182 0.94 0.398 1.358 0.649 0.418 0.251 0.716 0.418 0.895 0.503v0c-0.291-3.881 0.874-7.531 3.493-10.949v0c0.294-0.384 0.61-0.778 0.946-1.183v0c0.063-0.117 0.156-0.255 0.278-0.414 0.122-0.159 0.346-0.236 0.673-0.229v0c0.394-0.003 0.764 0.128 1.109 0.393v0c0.872 0.669 1.173 1.287 0.904 1.855z" fill="#ffffff" data-fill-palette-color="primary"></path><path d="M47.213 56.247v0c-0.243-0.255-0.6-0.588-1.07-1-0.474-0.417-0.984-0.881-1.53-1.393-0.551-0.507-1.093-1.04-1.628-1.6-0.53-0.555-0.967-1.108-1.311-1.658v0c-0.778-1.236-0.842-2.164-0.192-2.784v0c0.569-0.295 1.019-0.419 1.351-0.372 0.336 0.042 0.638 0.203 0.906 0.483 0.263 0.275 0.519 0.689 0.77 1.242v0c0.797 1.886 1.726 3.385 2.786 4.495v0c0.348 0.365 0.746 0.731 1.192 1.099v0c1.267 0.826 2.648 0.526 4.142-0.902v0c0.78-0.745 1.391-1.586 1.834-2.524v0c0.863-1.77 1.216-3.216 1.062-4.339v0c-0.557-0.864-1.098-1.571-1.623-2.121-0.525-0.55-1.013-1.021-1.464-1.413-0.451-0.392-0.949-0.819-1.495-1.281-0.547-0.463-1.123-0.997-1.731-1.603v0c0.114-0.291 0.271-0.532 0.472-0.722 0.2-0.191 0.505-0.287 0.916-0.287 0.411 0 0.966 0.216 1.664 0.647 0.694 0.427 1.436 1.004 2.226 1.732 0.78 0.727 1.569 1.498 2.367 2.314 0.793 0.82 1.559 1.618 2.299 2.393 0.735 0.77 1.4 1.402 1.995 1.894v0c-0.023 0.356-0.122 0.618-0.297 0.785v0c-0.635 0.606-1.711 0.42-3.229-0.559v0c-0.038 0.371-0.183 0.92-0.434 1.648v0c-0.506 1.572-1.383 3.136-2.632 4.691v0c-0.237 0.293-0.522 0.599-0.858 0.919-0.33 0.315-0.81 0.649-1.439 1.001-0.619 0.352-1.371 0.511-2.255 0.476-0.889-0.04-1.82-0.46-2.794-1.261z" fill="#ffffff" data-fill-palette-color="primary"></path><path d="M72.704 36.687c0.531-0.805 1.065-1.574 1.602-2.308 0.533-0.74 1.123-1.329 1.768-1.769 0.646-0.44 1.105-0.46 1.377-0.06v0c0.062 0.091 0.135 0.247 0.218 0.467 0.087 0.225-0.003 0.621-0.27 1.188-0.267 0.566-0.643 1.187-1.129 1.86-0.482 0.68-1.035 1.378-1.659 2.096-0.629 0.721-1.258 1.401-1.887 2.038v0c-1.298 1.336-2.265 2.22-2.899 2.651-0.64 0.436-1.374 0.831-2.203 1.187-0.838 0.353-1.685 0.583-2.541 0.69v0c-1.996 0.238-3.499-0.385-4.511-1.871v0c-0.078-0.114-0.228-0.334-0.45-0.66-0.222-0.326-0.404-0.888-0.545-1.686-0.144-0.789-0.15-1.675-0.018-2.66 0.13-0.975 0.385-1.964 0.764-2.967v0c0.782-2.13 1.9-3.928 3.352-5.394v0c0.497-0.523 0.94-0.916 1.329-1.181 0.394-0.269 0.719-0.486 0.974-0.651 0.265-0.164 0.541-0.323 0.829-0.477 0.29-0.164 0.572-0.26 0.846-0.288v0c0.638-0.083 1.192 0.221 1.663 0.913v0c0.296 0.434 0.277 1.07-0.056 1.907v0c-0.092 0.221-0.169 0.421-0.233 0.598v0c-0.375-0.355-0.737-0.627-1.084-0.818-0.341-0.194-0.758-0.124-1.249 0.211v0c-1.831 1.916-3.212 3.856-4.141 5.819v0c-1.038 2.221-1.168 3.903-0.39 5.046v0c0.086 0.126 0.188 0.257 0.306 0.394v0c0.79 1.16 1.798 1.682 3.024 1.566v0c0.923-0.094 1.916-0.502 2.979-1.226 1.063-0.724 1.902-1.475 2.517-2.254 0.61-0.775 1.182-1.562 1.717-2.361z" fill="#ffffff" data-fill-palette-color="primary"></path><path d="M96.115 27.928v0c-0.016 0.426-0.397 0.812-1.144 1.157-0.753 0.348-1.254 0.253-1.504-0.287v0c-1.091-2.359-1.888-3.952-2.392-4.777v0c-1.072-1.858-1.929-2.722-2.57-2.593v0c-1.567 0.382-2.806 0.784-3.716 1.204-0.91 0.421-1.532 1.044-1.866 1.869-0.331 0.816-0.36 1.93-0.088 3.342 0.279 1.41 0.88 3.295 1.804 5.655v0l-2.306 1.066c-0.49-1.159-0.961-2.225-1.41-3.197-0.453-0.979-1.01-2.134-1.672-3.466-0.659-1.325-1.389-2.773-2.192-4.345v0c-0.948-1.786-1.715-3.312-2.3-4.579-0.586-1.267-1.043-2.469-1.371-3.605v0c0.02-0.466 0.222-0.788 0.605-0.965v0c0.458-0.212 0.891-0.214 1.299-0.007 0.417 0.211 0.695 0.44 0.833 0.689v0l2.135 5.01c0.856 1.851 1.588 3.196 2.196 4.034v0c1.24-2.028 2.817-3.485 4.731-4.37v0c0.621-0.287 1.303-0.542 2.047-0.763v0c1.853 0.087 3.215 0.463 4.085 1.126v0c0.425 0.359 0.79 0.785 1.093 1.277 0.301 0.485 0.613 1.053 0.937 1.703v0c1.173 2.223 2.095 3.83 2.766 4.822z" fill="#ffffff" data-fill-palette-color="primary"></path><path d="M94.613 12.562l1.959-0.678c1.613 3.794 3.398 8.213 5.355 13.256v0c0.1 0.69-0.288 1.186-1.163 1.489v0c-0.229 0.079-0.476 0.114-0.743 0.104-0.276-0.014-0.471-0.093-0.587-0.236v0zM92.207 8.654v0c-0.251-0.725 0.052-1.236 0.907-1.532v0c0.562-0.194 1.062-0.229 1.501-0.102v0c0.138 0.208 0.244 0.42 0.319 0.636 0.077 0.222 0.069 0.463-0.025 0.721v0c-0.098 0.268-0.313 0.459-0.646 0.575-0.327 0.113-0.684 0.149-1.071 0.107-0.387-0.042-0.716-0.177-0.985-0.405z" fill="#ffffff" data-fill-palette-color="primary"></path><path d="M120.536 2.43v0c1.101-1.265 3.228-2.04 6.381-2.325v0c1.969-0.178 3.639-0.13 5.01 0.142 1.371 0.272 2.41 0.598 3.118 0.978 0.707 0.374 1.084 0.825 1.132 1.356v0c0.108 1.198-1.186 2.515-3.881 3.952v0c-0.395 0.237-1.447 0.734-3.155 1.493-1.708 0.765-2.859 1.282-3.452 1.55v0c-1.29 0.63-2.142 1.106-2.558 1.428v0c0.01 0.11 0.063 0.199 0.16 0.267 0.096 0.068 0.315 0.18 0.655 0.336 0.347 0.156 0.863 0.373 1.547 0.652 0.692 0.285 1.645 0.692 2.859 1.221v0c3.633 1.567 7.374 3.26 11.224 5.078v0c0.184 0.115 0.431 0.277 0.741 0.485 0.303 0.202 0.467 0.44 0.491 0.716 0.024 0.269-0.048 0.466-0.217 0.592-0.162 0.126-0.361 0.227-0.597 0.304-0.236 0.077-0.485 0.127-0.747 0.15v0l-0.661 0.06c-0.434 0.039-1.389-0.35-2.864-1.168-1.475-0.811-2.754-1.522-3.836-2.132-1.082-0.61-2.18-1.195-3.292-1.754v0c-2.616-1.374-4.668-2.237-6.158-2.589v0l0.678 7.518c0.039 0.434-0.313 0.684-1.057 0.752v0l-0.361 0.032c-0.461 0.042-0.819-0.155-1.074-0.59v0c-0.373-0.674-0.645-1.955-0.815-3.841v0l-0.492-6.609c-0.292-3.236-0.693-6.066-1.203-8.491v0c0.449-0.95 1.099-0.977 1.95-0.083v0c0.192 0.205 0.35 0.378 0.474 0.52zM131.673 1.821v0l-2.14 0.162c-4.943 0.446-7.736 1.27-8.377 2.473v0c-0.192 0.33-0.267 0.729-0.225 1.197 0.043 0.475 0.101 0.886 0.173 1.234v0c0.191 0.885 0.5 1.506 0.928 1.863v0c0.071 0.014 0.189 0.014 0.354-0.001 0.165-0.015 0.468-0.084 0.908-0.206 0.439-0.13 1.028-0.343 1.765-0.638 0.729-0.302 1.506-0.656 2.33-1.064 0.825-0.401 1.617-0.812 2.377-1.235v0c2.371-1.338 3.525-2.359 3.461-3.061v0c-0.035-0.392-0.553-0.634-1.554-0.724z" fill="#ffffff" data-fill-palette-color="primary"></path><path d="M150.969 18.872v0c1.92 0.182 4.9-0.419 8.94-1.801v0c0.241 0.023 0.429 0.124 0.565 0.304 0.143 0.18 0.204 0.38 0.183 0.6v0c-1.015 1.404-2.8 2.405-5.357 3.004-2.549 0.592-4.871 0.515-6.967-0.232v0c-2.37-0.863-3.716-2.372-4.04-4.527v0c-0.002-0.417 0.03-0.976 0.096-1.678 0.066-0.702 0.332-1.607 0.798-2.716 0.473-1.115 1.196-2.147 2.168-3.097 0.971-0.943 2.076-1.654 3.316-2.134 1.233-0.481 2.517-0.658 3.852-0.532v0c1.273 0.12 2.657 0.692 4.15 1.715v0c0.704 0.49 1.247 1.017 1.632 1.581 0.391 0.565 0.561 1.122 0.508 1.673v0c-0.014 0.151-0.039 0.302-0.074 0.451v0c-0.168 1.331-0.894 2.113-2.18 2.346v0c-0.558 0.1-1.198 0.116-1.921 0.048v0l-4.709-0.643c-1.576-0.149-2.813 0.078-3.71 0.68v0c-0.517 0.326-0.907 0.852-1.17 1.577v0c0.356 2.04 1.662 3.167 3.92 3.381zM157.78 9.287c-0.455-0.397-0.941-0.697-1.456-0.898-0.508-0.208-0.938-0.328-1.289-0.361-0.351-0.033-0.93 0.03-1.736 0.19-0.813 0.152-1.539 0.344-2.18 0.575v0c-1.573 0.553-2.396 1.214-2.468 1.985v0c1.734 0.317 3.038 0.516 3.911 0.599v0c2.429 0.23 4.091 0.175 4.984-0.164v0c0.55-0.163 0.841-0.41 0.872-0.741v0c0.037-0.392-0.176-0.787-0.638-1.185z" fill="#ffffff" data-fill-palette-color="primary"></path><path d="M176.208 17.205v0c2.347 0.589 3.37 1.48 3.071 2.674v0c-0.224 0.892-1.136 1.771-2.736 2.638v0c-2.382 1.284-5.349 2.047-8.902 2.289v0c-0.148-0.037-0.275-0.226-0.382-0.567-0.105-0.347-0.185-0.613-0.238-0.797-0.06-0.186-0.105-0.304-0.136-0.355v0c2.658-0.196 4.918-0.669 6.782-1.42v0c1.26-0.504 1.951-1 2.073-1.489 0.123-0.489-0.446-0.892-1.706-1.209-1.254-0.315-3.173-0.479-5.757-0.493v0c-1.095-0.325-1.954-0.961-2.578-1.909v0c-0.539-0.834-0.724-1.589-0.554-2.266 0.168-0.671 0.514-1.239 1.037-1.707 0.524-0.467 1.169-0.865 1.935-1.193 0.761-0.336 1.618-0.599 2.571-0.787v0c2.343-0.474 4.634-0.43 6.874 0.131v0c0.664 0.167 1.288 0.391 1.873 0.674v0c0.51 0.128 0.752 0.424 0.728 0.888-0.026 0.471-0.167 1.22-0.424 2.245v0c-1.116-0.893-2.462-1.537-4.037-1.932v0c-1.965-0.493-3.687-0.504-5.166-0.035v0c-1.513 0.433-2.445 1.265-2.796 2.495v0c-0.15 0.597 0.211 1.004 1.082 1.224v0l2.399 0.324c2.111 0.081 3.773 0.273 4.987 0.577z" fill="#ffffff" data-fill-palette-color="primary"></path><path d="M186.442 26.379v0l2.036-4.87c0.314-0.775 0.511-1.467 0.593-2.075v0l-4.739-1.917 0.793-2.128 4.586 1.854 3.191-7.893c0.13-0.156 0.326-0.29 0.587-0.4v0c0.402-0.165 0.7-0.209 0.892-0.131 0.192 0.078 0.351 0.164 0.477 0.26 0.125 0.095 0.221 0.302 0.286 0.619v0c-0.215 1.472-0.87 3.563-1.966 6.274v0c-0.272 0.673-0.511 1.348-0.718 2.025v0c0.687 0.181 1.358 0.404 2.012 0.668v0c0 0 0.529 0.214 1.586 0.641v0c0.391 0.158 0.758 0.284 1.1 0.378v0l-0.987 2.162-4.41-1.928-4.11 10.608c-0.439 0.016-0.79-0.029-1.053-0.135v0c-1.019-0.412-1.071-1.749-0.156-4.012z" fill="#ffffff" data-fill-palette-color="primary"></path><path d="M208.257 34.881v0c-2.719 1.434-5.423 1.739-8.112 0.914v0c-0.624-0.204-1.158-0.433-1.602-0.686-0.45-0.257-0.821-0.472-1.112-0.646-0.293-0.183-0.6-0.413-0.919-0.691-0.322-0.287-0.583-0.603-0.784-0.948v0c-0.479-0.806-0.514-1.57-0.103-2.291v0c0.12-0.393 0.302-0.802 0.545-1.229 0.246-0.432 0.666-0.945 1.259-1.538 0.596-0.599 1.381-1.166 2.354-1.702 0.973-0.535 2.019-0.938 3.136-1.208v0c2.336-0.594 4.504-0.6 6.503-0.018v0c0.582 0.18 1.086 0.392 1.512 0.635 0.432 0.246 0.803 0.497 1.111 0.753v0c1.111 0.633 1.426 1.812 0.945 3.534v0c-0.292 1.099-0.902 2.518-1.829 4.257-0.93 1.73-1.635 3.071-2.114 4.023-0.483 0.958-0.845 1.874-1.088 2.746v0l-1.685-0.96c0.216-0.561 0.418-1.055 0.606-1.481 0.19-0.417 0.366-0.81 0.528-1.179v0c0.359-0.854 0.642-1.615 0.849-2.285zM210.672 30.373v0c0.63-1.105 0.401-1.967-0.686-2.587v0c-0.128-0.097-0.258-0.183-0.39-0.258v0c-1.393-0.794-3.245-0.966-5.555-0.517v0c-1.07 0.202-2.08 0.537-3.031 1.006v0c-1.388 0.649-2.329 1.406-2.822 2.27v0c-0.64 1.123-0.368 2.161 0.815 3.115v0c1.738 0.943 3.828 1.095 6.268 0.457v0c1.047-0.287 2.012-0.695 2.895-1.226v0c1.212-0.702 2.047-1.455 2.506-2.26z" fill="#ffffff" data-fill-palette-color="primary"></path><path d="M212.543 38.953v0c0.218-0.277 0.497-0.678 0.838-1.201 0.345-0.529 0.732-1.1 1.161-1.713 0.423-0.617 0.874-1.23 1.352-1.838 0.474-0.603 0.959-1.115 1.455-1.534v0c1.112-0.946 2.022-1.141 2.728-0.587v0c0.373 0.521 0.56 0.949 0.561 1.285 0.006 0.339-0.11 0.661-0.349 0.965-0.235 0.299-0.608 0.612-1.121 0.939v0c-1.754 1.058-3.104 2.19-4.052 3.397v0c-0.312 0.397-0.618 0.842-0.918 1.336v0c-0.638 1.371-0.144 2.696 1.482 3.973v0c0.848 0.666 1.768 1.151 2.76 1.455v0c1.874 0.602 3.356 0.746 4.446 0.433v0c0.776-0.674 1.398-1.31 1.868-1.908 0.47-0.598 0.866-1.148 1.19-1.65 0.324-0.502 0.676-1.056 1.056-1.663 0.38-0.607 0.827-1.254 1.339-1.94v0c0.304 0.072 0.565 0.193 0.783 0.363 0.217 0.171 0.356 0.459 0.414 0.866 0.059 0.407-0.076 0.986-0.404 1.74-0.324 0.748-0.789 1.564-1.397 2.45-0.609 0.876-1.26 1.766-1.953 2.672-0.699 0.901-1.38 1.773-2.042 2.616-0.658 0.837-1.188 1.585-1.591 2.244v0c-0.356 0.028-0.629-0.033-0.82-0.182v0c-0.69-0.542-0.659-1.634 0.094-3.276v0c-0.372 0.015-0.937-0.05-1.692-0.195v0c-1.628-0.277-3.301-0.923-5.019-1.937v0c-0.323-0.193-0.667-0.432-1.031-0.718-0.359-0.282-0.757-0.709-1.196-1.282-0.437-0.563-0.701-1.284-0.791-2.165-0.087-0.886 0.197-1.867 0.849-2.945z" fill="#ffffff" data-fill-palette-color="primary"></path><path d="M243.877 57.577v0c-0.147-1.12-0.716-2.211-1.707-3.272v0c-0.929-0.996-1.977-1.748-3.142-2.259v0c-2.177-0.975-4.072-1.268-5.685-0.878v0c-0.721 0.2-1.354 0.555-1.901 1.064v0c-0.096 0.09-0.366 0.342-0.811 0.757-0.44 0.41-0.96 1.043-1.562 1.897-0.597 0.86-1.28 1.648-2.048 2.365v0c-0.336-0.32-0.631-0.555-0.886-0.705-0.259-0.146-0.457-0.292-0.593-0.439-0.137-0.147-0.189-0.329-0.157-0.548 0.032-0.229 0.174-0.578 0.425-1.05v0c0.077-0.11 0.319-0.397 0.727-0.862 0.403-0.47 0.892-1.04 1.467-1.71 0.581-0.674 1.211-1.413 1.889-2.217 0.683-0.798 1.356-1.582 2.018-2.351v0c1.442-1.677 2.495-2.914 3.159-3.713v0c0.389-0.363 0.846-0.264 1.369 0.297v0c0.316 0.339 0.422 0.736 0.318 1.192-0.104 0.456-0.281 0.91-0.531 1.361-0.26 0.451-0.548 0.861-0.864 1.232-0.316 0.371-0.531 0.637-0.644 0.799v0c3.876 0.354 7.283 2.106 10.221 5.255v0c0.33 0.354 0.667 0.73 1.011 1.128v0c0.105 0.082 0.226 0.196 0.362 0.342 0.137 0.147 0.175 0.38 0.115 0.701v0c-0.062 0.389-0.253 0.732-0.571 1.03v0c-0.804 0.75-1.463 0.945-1.979 0.584z" fill="#ffffff" data-fill-palette-color="primary"></path><path d="M248.96 76.184v0c-3.073 0.086-5.634-0.834-7.683-2.761v0c-0.469-0.459-0.847-0.9-1.134-1.323-0.291-0.429-0.528-0.786-0.713-1.071-0.182-0.294-0.356-0.636-0.519-1.025-0.162-0.4-0.257-0.799-0.285-1.198v0c-0.074-0.935 0.232-1.635 0.919-2.1v0c0.282-0.299 0.625-0.587 1.031-0.862 0.412-0.279 1.015-0.554 1.809-0.825 0.799-0.274 1.754-0.437 2.864-0.487 1.11-0.05 2.225 0.05 3.347 0.3v0c2.358 0.498 4.306 1.45 5.842 2.856v0c0.442 0.419 0.801 0.831 1.077 1.237 0.279 0.412 0.501 0.801 0.664 1.166v0c0.717 1.059 0.48 2.255-0.712 3.588v0c-0.747 0.857-1.921 1.861-3.521 3.012-1.598 1.141-2.823 2.033-3.673 2.676-0.856 0.647-1.585 1.308-2.188 1.984v0l-1.088-1.606c0.442-0.408 0.841-0.762 1.197-1.061 0.354-0.29 0.686-0.565 0.995-0.824v0c0.699-0.607 1.289-1.166 1.771-1.676zM253.116 73.205v0c1.053-0.713 1.229-1.588 0.527-2.624v0c-0.072-0.143-0.151-0.278-0.236-0.404v0c-0.9-1.328-2.485-2.3-4.755-2.915v0c-1.049-0.291-2.104-0.437-3.165-0.437v0c-1.532-0.031-2.71 0.233-3.534 0.792v0c-1.07 0.725-1.285 1.776-0.644 3.154v0c1.143 1.614 2.951 2.673 5.422 3.178v0c1.066 0.205 2.112 0.264 3.139 0.178v0c1.397-0.095 2.479-0.402 3.246-0.922z" fill="#ffffff" data-fill-palette-color="primary"></path><path d="M257.416 93.077l1.824-0.85c2.358-1.142 4.029-2.109 5.013-2.9v0c0.374 0.011 0.407-0.301 0.1-0.936v0c-0.326-0.672-0.914-1.458-1.766-2.359-0.861-0.904-1.622-1.611-2.283-2.121v0c-1.549-1.231-2.73-1.758-3.542-1.579v0l-8.072 3.91-0.967-1.997c0.548-0.581 2.375-1.623 5.479-3.126v0c2.769-1.341 4.833-2.272 6.194-2.794 1.358-0.527 2.142-0.803 2.352-0.828v0c0.583 0.347 0.952 0.68 1.106 0.997v0c0.241 0.498-0.223 1.03-1.393 1.596v0c-0.454 0.22-0.905 0.408-1.352 0.563-0.453 0.158-0.758 0.275-0.914 0.351v0c3.904 2.065 6.282 3.978 7.136 5.738v0c0.967 1.997-0.092 3.916-3.18 5.757v0c-1.069 0.664-2.602 1.479-4.599 2.447v0l-2.365 1.111c-0.871 0.422-1.702 0.847-2.493 1.277v0c-0.215-0.142-0.351-0.272-0.407-0.39v0c-0.008-0.065-0.042-0.206-0.102-0.424-0.053-0.22-0.147-0.493-0.282-0.819v0c0.694-0.582 1.447-1.081 2.259-1.498 0.812-0.416 1.564-0.792 2.254-1.126z" fill="#ffffff" data-fill-palette-color="primary"></path><path d="M259.198 103.92v0l5.042-1.563c0.796-0.257 1.453-0.549 1.972-0.877v0l-1.571-4.864 2.142-0.758 1.52 4.707 8.101-2.617c0.203 0 0.431 0.064 0.684 0.193v0c0.385 0.203 0.609 0.402 0.673 0.6 0.064 0.197 0.099 0.375 0.107 0.532 0.007 0.157-0.09 0.363-0.291 0.617v0c-1.266 0.78-3.291 1.619-6.074 2.518v0c-0.691 0.223-1.362 0.473-2.014 0.749v0c0.302 0.643 0.562 1.301 0.779 1.971v0c0 0 0.175 0.543 0.526 1.629v0c0.13 0.401 0.268 0.763 0.416 1.086v0l-2.292 0.631-1.35-4.62-10.774 3.655c-0.294-0.326-0.485-0.624-0.572-0.894v0c-0.338-1.046 0.654-1.944 2.976-2.695z" fill="#ffffff" data-fill-palette-color="primary"></path><path d="M0.767 143.799c0-4.73 3.835-8.565 8.565-8.565 4.73 0 8.565 3.835 8.565 8.565 0 4.73-3.835 8.565-8.565 8.565-4.73 0-8.565-3.835-8.565-8.565z" fill="#ffffff" data-fill-palette-color="primary"></path><path d="M261.823 143.799c0-4.73 3.835-8.565 8.565-8.565 4.73 0 8.565 3.835 8.565 8.565 0 4.73-3.835 8.565-8.565 8.565-4.73 0-8.565-3.835-8.565-8.565z" fill="#ffffff" data-fill-palette-color="primary"></path></g><g id="text-1"><path d="M24.809 178.268l-17.465 4.772c-0.36 0.098-0.609-0.106-0.748-0.613v0c-0.106-0.387-0.05-0.893 0.166-1.518v0c0.504-0.41 1.837-0.91 3.997-1.501 2.161-0.59 3.953-1.059 5.378-1.404 1.418-0.344 2.727-0.655 3.927-0.933v0c2.622-0.58 4.01-0.891 4.163-0.934v0c0.528 0.515 0.846 0.973 0.956 1.373 0.111 0.407-0.013 0.659-0.374 0.758z" fill="#ffffff" data-fill-palette-color="secondary"></path><path d="M47.553 240.676l1.483-1.36c1.903-1.801 3.204-3.227 3.903-4.279v0c0.36-0.103 0.297-0.41-0.188-0.922v0c-0.513-0.542-1.317-1.115-2.41-1.717-1.084-0.602-2.018-1.046-2.802-1.331v0c-1.849-0.706-3.135-0.854-3.86-0.444v0l-6.515 6.165-1.518-1.604c0.347-0.719 1.774-2.264 4.279-4.635v0c2.234-2.115 3.921-3.626 5.061-4.533 1.135-0.913 1.799-1.413 1.993-1.5v0c0.661 0.155 1.112 0.361 1.355 0.616v0c0.38 0.402 0.098 1.049-0.846 1.943v0c-0.367 0.347-0.74 0.662-1.119 0.945-0.384 0.288-0.639 0.491-0.765 0.609v0c4.345 0.79 7.19 1.895 8.535 3.316v0c1.525 1.612 1.094 3.761-1.293 6.449v0c-0.819 0.955-2.036 2.198-3.653 3.728v0l-1.919 1.759c-0.703 0.665-1.364 1.324-1.983 1.977v0c-0.247-0.07-0.416-0.153-0.507-0.248v0c-0.032-0.064-0.107-0.189-0.224-0.373-0.117-0.194-0.289-0.426-0.517-0.697v0c0.486-0.764 1.053-1.467 1.702-2.109 0.649-0.642 1.251-1.227 1.808-1.755z" fill="#ffffff" data-fill-palette-color="secondary"></path><path d="M117.83 254.503c-0.568 2.031-1.183 3.998-1.845 5.901-0.655 1.906-1.288 3.771-1.899 5.596-0.618 1.823-1.218 3.776-1.801 5.859-0.585 2.09-1.052 4.339-1.402 6.747v0c-0.138 0.493-0.325 0.817-0.563 0.973-0.239 0.163-0.572 0.185-0.999 0.065v0c-0.992-0.278-1.257-1.242-0.795-2.892v0l0.294-1.049c-3.637 1.402-6.49 1.813-8.561 1.234v0c-0.826-0.231-1.612-0.666-2.359-1.306-0.745-0.646-1.326-1.688-1.742-3.125v0c0.035-0.536 0.127-1.07 0.276-1.603 0.147-0.526 0.426-1.137 0.836-1.834 0.41-0.696 1.041-1.36 1.892-1.99 0.851-0.63 1.805-1.128 2.862-1.493v0c2.318-0.766 4.608-0.832 6.871-0.199v0c0.972 0.272 1.863 0.679 2.673 1.222v0c0.106-0.379 0.319-1.038 0.639-1.975 0.32-0.937 0.657-1.927 1.013-2.968v0c0.896-2.714 1.437-4.314 1.623-4.801 0.18-0.488 0.354-0.895 0.525-1.221 0.172-0.332 0.37-0.604 0.594-0.813v0c0.46-0.438 1.083-0.548 1.868-0.328zM98.82 271.301v0c-0.467 1.671-0.099 2.675 1.107 3.013v0c0.193 0.054 0.412 0.094 0.656 0.118v0c0.865 0.242 2.006 0.285 3.42 0.128v0c2.676-0.278 4.379-0.692 5.107-1.242v0l1.182-4.224c0.207-0.739-0.296-1.278-1.508-1.617v0c-0.141-0.061-0.331-0.125-0.571-0.192-0.246-0.069-0.637-0.121-1.173-0.155-0.542-0.037-1.168-0.007-1.877 0.088-0.709 0.096-1.43 0.26-2.162 0.494v0c-1.534 0.504-2.706 1.271-3.518 2.3v0c-0.311 0.394-0.532 0.824-0.663 1.289z" fill="#ffffff" data-fill-palette-color="secondary"></path><path d="M166.317 264.712l2.025-0.448c1.163 3.948 2.427 8.54 3.789 13.775v0c0.02 0.697-0.423 1.145-1.327 1.345v0c-0.236 0.052-0.486 0.058-0.75 0.017-0.272-0.046-0.457-0.147-0.556-0.302v0zM164.375 260.543v0c-0.166-0.749 0.194-1.222 1.078-1.417v0c0.581-0.128 1.081-0.105 1.502 0.071v0c0.113 0.223 0.194 0.446 0.244 0.668 0.051 0.23 0.015 0.468-0.108 0.714v0c-0.128 0.255-0.364 0.42-0.708 0.497-0.338 0.075-0.696 0.069-1.076-0.017-0.379-0.079-0.689-0.251-0.932-0.516z" fill="#ffffff" data-fill-palette-color="secondary"></path><path d="M230.751 241.571v0c0.438 3.039-0.184 5.685-1.868 7.938v0c-0.403 0.518-0.798 0.944-1.186 1.277-0.394 0.337-0.721 0.614-0.983 0.829-0.271 0.214-0.592 0.425-0.96 0.632-0.379 0.206-0.764 0.346-1.158 0.419v0c-0.921 0.179-1.651-0.046-2.191-0.676v0c-0.329-0.246-0.654-0.555-0.973-0.928-0.324-0.378-0.665-0.946-1.023-1.704-0.363-0.763-0.632-1.693-0.808-2.79-0.171-1.092-0.198-2.212-0.08-3.36v0c0.228-2.399 0.954-4.442 2.176-6.128v0c0.366-0.487 0.735-0.89 1.108-1.209 0.378-0.324 0.739-0.588 1.083-0.792v0c0.971-0.832 2.186-0.732 3.647 0.302v0c0.931 0.65 2.058 1.705 3.382 3.165 1.32 1.455 2.349 2.571 3.089 3.348 0.735 0.772 1.472 1.42 2.211 1.942v0l-1.48 1.269c-0.45-0.397-0.844-0.756-1.182-1.076-0.328-0.319-0.639-0.618-0.931-0.895v0c-0.682-0.626-1.307-1.147-1.873-1.563zM227.329 237.77v0c-0.828-0.966-1.717-1.041-2.667-0.227v0c-0.134 0.088-0.259 0.181-0.374 0.281v0c-1.218 1.044-2.004 2.729-2.359 5.054v0c-0.176 1.08-0.201 2.144-0.077 3.193v0c0.143 1.526 0.538 2.667 1.186 3.423v0c0.841 0.981 1.91 1.076 3.207 0.283v0c1.474-1.318 2.322-3.234 2.545-5.746v0c0.083-1.082 0.024-2.128-0.178-3.14v0c-0.252-1.377-0.68-2.418-1.283-3.121z" fill="#ffffff" data-fill-palette-color="secondary"></path><path d="M267.83 181.656l-1.894-0.68c-2.479-0.847-4.347-1.336-5.603-1.466v0c-0.258-0.271-0.501-0.073-0.729 0.594v0c-0.241 0.706-0.375 1.684-0.399 2.932-0.029 1.239 0.012 2.273 0.124 3.1v0c0.234 1.965 0.702 3.173 1.402 3.624v0l8.487 2.902-0.714 2.09c-0.798 0.027-2.829-0.518-6.094-1.634v0c-2.911-0.995-5.033-1.786-6.366-2.373-1.336-0.581-2.087-0.936-2.255-1.067v0c-0.17-0.657-0.198-1.153-0.084-1.486v0c0.179-0.523 0.883-0.575 2.113-0.155v0c0.478 0.163 0.93 0.347 1.357 0.552 0.433 0.207 0.732 0.338 0.896 0.394v0c-1.321-4.214-1.665-7.247-1.033-9.098v0c0.718-2.1 2.821-2.718 6.31-1.854v0c1.226 0.28 2.893 0.781 5 1.501v0l2.449 0.881c0.916 0.313 1.807 0.592 2.673 0.837v0c0.053 0.252 0.058 0.44 0.015 0.564v0c-0.042 0.059-0.117 0.183-0.226 0.372-0.117 0.194-0.243 0.454-0.376 0.781v0c-0.902-0.075-1.789-0.25-2.659-0.525-0.87-0.276-1.668-0.537-2.394-0.786z" fill="#ffffff" data-fill-palette-color="secondary"></path></g></svg></g></svg></g></svg></g></svg></g><defs></defs></svg><rect width="279.72" height="279.72" fill="none" stroke="none" visibility="hidden"></rect></g></svg></g></svg>